<svg version="1.1" id="Layer_1" xmlns="http://www.w3.org/2000/svg" x="0px" y="0px" width="80px" height="80px" viewBox="0 0 80 80" enable-background="new 0 0 80 80" xml:space="preserve"><path opacity=".3" fill="#FDFEFF" stroke="#E0E1E0" stroke-miterlimit="10" d="M79.22 77.27c0 1.1-.88 1.98-1.97 1.98H2.95c-1.1 0-1.99-.89-1.99-1.98V2.79c0-1.1.89-1.98 1.98-1.98h74.3c1.1 0 1.99.89 1.99 1.98v74.48z"/><path fill="#636464" d="M31.58 60.38h-9.04V23.2l.11-1.1s.6-9 8.93-13.6c0 0 7.38-5.77 17.96-.07 0 0 8.08 4.46 9.02 13.67v1.1l.11 37.18h-9.1l.01-37.18s-.2-3.13-2.49-5.38c0 0-5.78-6.22-12.9-.07 0 0-2.19 2.05-2.6 5.45v37.18z"/><path fill="#969595" d="M32.5 59.14h-8.23V24.38l.1-1.03s.54-8.42 8.13-12.72c0 0 6.7-5.4 16.33-.07 0 0 7.34 4.18 8.2 12.8v1.02l.1 34.76h-8.27V24.38s-.18-2.93-2.26-5.03c0 0-5.26-5.82-11.73-.07 0 0-2 1.92-2.38 5.1v34.76z"/><path fill="#FBCD4B" d="M16.17 31.3h24.44v41.29H16.17z"/><path fill="#E9AC21" d="M40.61 31.3h24.73v41.29H40.61z"/><text transform="translate(19.23 51.12)" fill="#010101" font-family="'Arial'" font-weight="bold" font-size="16.98">100%</text><text transform="translate(20.38 65.4)" fill="#010101" font-family="'Arial'" font-weight="bold" font-size="16.29">https</text></svg>
